<?xml version="1.0" encoding="utf-8"?>
<!-- Generator: Adobe Illustrator 16.0.0, SVG Export Plug-In . SVG Version: 6.00 Build 0)  -->
<!DOCTYPE svg PUBLIC "-//W3C//DTD SVG 1.1//EN" "http://www.w3.org/Graphics/SVG/1.1/DTD/svg11.dtd">
<svg version="1.1" id="Layer_1" xmlns="http://www.w3.org/2000/svg" xmlns:xlink="http://www.w3.org/1999/xlink" x="0px" y="0px"
	 width="120px" height="34px" viewBox="0 0 120 34" enable-background="new 0 0 120 34" xml:space="preserve">
<g>
	<g>
		<path fill="#33363B" d="M91.457,12.153h-6.133c-0.276,0-0.5,0.223-0.5,0.5v9.21c0,0.271,0.224,0.496,0.5,0.496h6.133
			c0.274,0,0.5-0.225,0.5-0.496v-0.711c0-0.274-0.226-0.497-0.5-0.497h-4.358c-0.277,0-0.5-0.227-0.5-0.499v-1.549
			c0-0.273,0.223-0.496,0.5-0.496h4.358c0.274,0,0.5-0.225,0.5-0.502v-0.692c0-0.276-0.226-0.5-0.5-0.5h-4.358
			c-0.277,0-0.5-0.227-0.5-0.498v-1.562c0-0.273,0.223-0.5,0.5-0.5h4.358c0.274,0,0.5-0.225,0.5-0.497v-0.708
			C91.957,12.376,91.731,12.153,91.457,12.153z"/>
		<path fill="#33363B" d="M102.643,12.595c-0.128-0.243-0.335-0.243-0.463,0l-4.897,9.323c-0.126,0.244-0.006,0.441,0.267,0.441
			h0.997c0.275,0,0.605-0.197,0.734-0.439l0.442-0.826c0.131-0.24,0.458-0.438,0.732-0.438h3.925c0.277,0,0.606,0.198,0.733,0.439
			l0.435,0.823c0.126,0.244,0.455,0.441,0.729,0.441h0.997c0.274,0,0.391-0.197,0.267-0.441L102.643,12.595z M103.489,18.963h-2.155
			c-0.272,0-0.396-0.199-0.266-0.442l1.111-2.118c0.128-0.241,0.335-0.241,0.463,0l1.111,2.118
			C103.882,18.764,103.762,18.963,103.489,18.963z"/>
		<path fill="#33363B" d="M63.622,16.175h-1.487c-0.274,0-0.5-0.223-0.5-0.498v-1.509c0-0.277-0.223-0.5-0.497-0.5h-0.778
			c-0.278,0-0.501,0.223-0.501,0.5v1.509c0,0.275-0.222,0.498-0.497,0.498h-1.485c-0.278,0-0.501,0.225-0.501,0.499v0.78
			c0,0.274,0.223,0.499,0.501,0.499h1.485c0.275,0,0.497,0.223,0.497,0.498v1.465c0,0.275,0.223,0.496,0.501,0.496h0.778
			c0.274,0,0.497-0.221,0.497-0.496v-1.465c0-0.275,0.226-0.498,0.5-0.498h1.487c0.273,0,0.496-0.225,0.496-0.499v-0.78
			C64.118,16.4,63.896,16.175,63.622,16.175z"/>
		<path fill="#33363B" d="M78.143,13.661c-0.489-0.466-1.058-0.834-1.705-1.103c-0.651-0.271-1.574-0.356-1.574-0.356
			c-0.271-0.028-0.717-0.049-0.992-0.049H71.3c-0.276,0-0.718,0-0.982,0s-0.484,0.223-0.484,0.5v0.377
			c0,0.274,0.22,0.498,0.484,0.498s0.484,0.225,0.484,0.499v7.836c0,0.271,0.222,0.496,0.498,0.496h2.571
			c0.275,0,0.721-0.022,0.992-0.047c0,0,0.928-0.087,1.58-0.357c0.657-0.27,1.223-0.637,1.708-1.102
			c0.483-0.466,0.866-1.01,1.147-1.627c0.288-0.617,0.429-1.273,0.429-1.972c0-0.691-0.141-1.352-0.429-1.97
			C79.018,14.665,78.63,14.126,78.143,13.661z M77.655,18.564c-0.181,0.414-0.439,0.775-0.762,1.086
			c-0.325,0.316-0.704,0.561-1.137,0.737s-0.894,0.22-0.894,0.22c-0.271,0.028-0.717,0.048-0.992,0.048h-0.796
			c-0.274,0-0.498-0.227-0.498-0.499v-5.799c0-0.273,0.224-0.5,0.498-0.5h0.796c0.275,0,0.721,0.022,0.992,0.048
			c0,0,0.448,0.043,0.879,0.219c0.432,0.176,0.814,0.42,1.141,0.733c0.33,0.317,0.592,0.678,0.772,1.089
			c0.187,0.412,0.281,0.846,0.281,1.308C77.937,17.718,77.842,18.154,77.655,18.564z"/>
		<path fill="#33363B" d="M119.503,20.655h-4.359c-0.277,0-0.499-0.227-0.499-0.499v-7.503c0-0.277-0.227-0.5-0.501-0.5h-0.778
			c-0.272,0-0.717,0-0.979,0c-0.267,0-0.484,0.223-0.484,0.5v0.377c0,0.274,0.218,0.498,0.484,0.498
			c0.263,0,0.479,0.225,0.479,0.499v7.836c0,0.271,0.228,0.496,0.5,0.496h6.138c0.272,0,0.497-0.225,0.497-0.496v-0.711
			C120,20.878,119.775,20.655,119.503,20.655z"/>
		<path fill="#33363B" d="M49.994,15.895h-0.775c-0.274,0-0.717,0-0.979,0c-0.267,0-0.482,0.223-0.482,0.498v0.38
			c0,0.275,0.216,0.5,0.482,0.5c0.263,0,0.479,0.225,0.479,0.5v4.092c0,0.271,0.227,0.496,0.501,0.496h0.775
			c0.275,0,0.499-0.225,0.499-0.496v-5.471C50.493,16.118,50.27,15.895,49.994,15.895z"/>
		<path fill="#33363B" d="M49.398,12.152c-0.335,0-0.623,0.116-0.851,0.349c-0.226,0.23-0.34,0.515-0.34,0.843
			c0,0.32,0.114,0.597,0.348,0.838c0.233,0.238,0.513,0.354,0.843,0.354c0.329,0,0.61-0.115,0.839-0.354
			c0.228-0.241,0.341-0.518,0.341-0.838c0-0.328-0.113-0.612-0.341-0.843C50.009,12.268,49.728,12.152,49.398,12.152z"/>
	</g>
	<path fill="#33363B" d="M33.919,16.999c0-9.366-7.593-16.958-16.961-16.958S0,7.633,0,16.999c0,9.368,7.59,16.96,16.958,16.96
		S33.919,26.367,33.919,16.999z M12.582,23.197c0,0.363-0.296,0.662-0.662,0.662H8.844c-0.364,0-0.659-0.299-0.659-0.662v-3.078
		c0-0.361,0.295-0.661,0.659-0.661h3.076c0.366,0,0.662,0.3,0.662,0.661V23.197z M10.385,15.265c-1.343,0-2.427-1.084-2.427-2.425
		c0-1.339,1.084-2.424,2.427-2.424c1.336,0,2.421,1.085,2.421,2.424C12.806,14.18,11.721,15.265,10.385,15.265z M20.23,23.855
		h-0.657v0.004h-1.93c-0.362,0-0.661-0.299-0.661-0.662v-0.66v-1.759v-0.659c0-0.361,0.299-0.661,0.661-0.661h0.646
		c0.004,0,0.007,0,0.014,0h0.253v-0.004h1.675c1.221,0,2.214-0.992,2.214-2.209c0-1.218-0.993-2.207-2.214-2.207h-0.657v0.003h-1.93
		c-0.362,0-0.661-0.297-0.661-0.66v-0.664V11.96V11.3c0-0.363,0.299-0.661,0.661-0.661h0.646c0.004,0,0.007,0,0.014,0h0.253v-0.003
		h1.675c3.649,0,6.609,2.965,6.609,6.608C26.84,20.889,23.88,23.855,20.23,23.855z"/>
</g>
</svg>
